# AST/ASF file generated using VICON BodyLanguage
# -----------------------------------------------
:version 1.10
:name VICON
:units
  mass 1.0
  length 0.45
  angle deg
:documentation
   .ast/.asf automatically generated from VICON data using
   VICON BodyBuilder and BodyLanguage model FoxedUp or BRILLIANT.MOD
:root
   order TX TY TZ RX RY RZ
   axis XYZ
   position 0 0 0  
   orientation 0 0 0 
:bonedata
  begin
     id 1 
     name lhipjoint
     direction 0.692814 -0.645514 0.321437 
     length 2.38754 
     axis 0 0 0  XYZ
  end
  begin
     id 2 
     name lfemur
     direction 0.34202 -0.939693 0  
     length 6.41921  
     axis 0 0 20  XYZ
    dof rx ry rz
    limits (-160.0 20.0)
           (-70.0 70.0)
           (-60.0 70.0)
  end
  begin
     id 3 
     name ltibia
     direction 0.34202 -0.939693 0   
     length 6.98247   
     axis 0 0 20   XYZ
    dof rx
    limits (-10.0 170.0)
  end
  begin
     id 4 
     name lfoot
     direction 0.0947186 -0.260237 0.960888   
     length 1.83034   
     axis -90 7.62852e-016 20   XYZ
    dof rx rz
    limits (-45.0 90.0)
           (-70.0 20.0)
  end
  begin
     id 5 
     name ltoes
     direction 1.53538e-011 -4.21952e-011 1   
     length 0.920499   
     axis -90 7.62852e-016 20   XYZ
    dof rx
    limits (-90.0 20.0)
  end
  begin
     id 6 
     name rhipjoint
     direction -0.631686 -0.693949 0.345555   
     length 2.2209  
     axis 0 0 0  XYZ 
  end
  begin
     id 7 
     name rfemur
     direction -0.34202 -0.939693 0   
     length 6.49542   
     axis 0 0 -20   XYZ
    dof rx ry rz
    limits (-160.0 20.0)
           (-70.0 70.0)
           (-70.0 60.0)
  end
  begin
     id 8 
     name rtibia
     direction -0.34202 -0.939693 0   
     length 7.21712   
     axis 0 0 -20   XYZ
    dof rx
    limits (-10.0 170.0)
 end
 begin
     id 9 
     name rfoot
     direction -0.0825378 -0.226771 0.970444   
     length 1.89724  
     axis -90 -7.62852e-016 -20   XYZ
    dof rx rz
    limits (-45.0 90.0)
           (-20.0 70.0)
  end
  begin
     id 10 
     name rtoes
     direction -1.53515e-011 -4.22016e-011 1   
     length 0.955868   
     axis -90 -7.62852e-016 -20   XYZ
    dof rx
    limits (-90.0 20.0)
  end
  begin
     id 11 
     name lowerback
     direction -0.0104711 0.984802 -0.173368   
     length 1.84931   
     axis 0 0 0   XYZ
    dof rx ry rz
    limits (-20.0 45.0)
           (-30.0 30.0)
           (-30.0 30.0)
  end
  begin
     id 12 
     name upperback
     direction -0.00286433 0.999996 -0.000382853   
     length 1.85768   
     axis 0 0 0   XYZ
    dof rx ry rz
    limits (-20.0 45.0)
           (-30.0 30.0)
           (-30.0 30.0)
  end
  begin
     id 13 
     name thorax
     direction 0.00167534 0.996793 0.0800069   
     length 1.92   
     axis 0 0 0   XYZ
    dof rx ry rz
    limits (-20.0 45.0)
           (-30.0 30.0)
           (-30.0 30.0)
  end
  begin
     id 14 
     name lowerneck
     direction -0.0672491 0.995415 0.068018   
     length 1.58923   
     axis 0 0 0   XYZ
    dof rx ry rz
    limits (-20.0 45.0)
           (-30.0 30.0)
           (-30.0 30.0)
  end
  begin
     id 15 
     name upperneck
     direction 0.0958019 0.982476 -0.159884   
     length 1.60189   
     axis 0 0 0   XYZ
    dof rx ry rz
    limits (-20.0 45.0)
           (-30.0 30.0)
           (-30.0 30.0)
  end
  begin
     id 16
     name head
     direction 0.032989 0.997338 -0.0650226  
     length 1.61681  
     axis 0 0 0   XYZ
    dof rx ry rz
    limits (-20.0 45.0)
           (-30.0 30.0)
           (-30.0 30.0)
  end
  begin
     id 17 
     name lclavicle
     direction 0.954279 0.298875 -0.00496069  
     length 2.99449  
     axis 0 0 0   XYZ
    dof ry rz
    limits (-20.0 10.0)
           (0.0 20.0)
  end
  begin
     id 18 
     name lhumerus
     direction 1 -4.48985e-011 -4.2057e-027   
     length 4.79185   
     axis 180 -30 -90   XYZ
    dof rx ry rz
    limits (-60.0 90.0)
           (-90.0 90.0)
           (-90.0 90.0)
  end
  begin
     id 19
     name lradius
     direction 1 -4.48945e-011 1.15441e-028   
     length 2.65553   
     axis 180 -30 -90   XYZ
    dof rx
    limits (-10.0 170.0)
  end
  begin
     id 20
     name lwrist
     direction 1 -4.4899e-011 4.8894e-028   
     length 1.32777   
     axis -2.56392e-016 90 90   XYZ
    dof ry
    limits (-180.0 0.0)
 end
  begin
     id 21 
     name lhand
     direction 1 -4.48908e-011 9.7788e-028   
     length 0.743904   
     axis -6.23971e-016 90 90   XYZ
    dof rx rz
    limits (-90.0 90.0)
           (-45.0 45.0)
  end
  begin
     id 22 
     name lfingers
     direction 1 -4.49068e-011 1.95576e-027   
     length 0.599754   
     axis -1.24794e-015 90 90   XYZ
    dof rx
    limits (0.0 90.0)
  end
  begin
     id 23
     name lthumb
     direction 0.707107 -6.34883e-011 0.707107   
     length 0.861131   
     axis -90 45 2.85299e-015   XYZ
    dof rx rz
    limits (-45.0 45.0)
           (-45.0 45.0)
  end
  begin
     id 24 
     name rclavicle
     direction -0.957921 0.286916 0.00811568   
     length 3.06817  
     axis 0 0 0   XYZ 
    dof ry rz
    limits (-10.0 20.0)
           (-20.0 0.0)
  end
  begin
     id 25 
     name rhumerus
     direction -1 -4.48971e-011 -3.07942e-027  
     length 4.77254   
     axis 180 30 90   XYZ
    dof rx ry rz
    limits (-90.0 60.0)
           (-90.0 90.0)
           (-90.0 90.0)
  end
  begin
     id 26 
     name rradius
     direction -1 -4.48957e-011 -9.6815e-028   
     length 2.75995   
     axis 180 30 90   XYZ
    dof rx
    limits (-10.0 170.0)
  end
  begin
     id 27 
     name rwrist
     direction -1 -4.48979e-011 4.8894e-028   
     length 1.37997   
     axis -2.56392e-016 -90 -90   XYZ
    dof ry
    limits (-180.0 0.0)
  end
  begin
     id 28
     name rhand
     direction -1 -4.48906e-011 9.7788e-028   
     length 0.701619   
     axis -6.23971e-016 -90 -90   XYZ
    dof rx rz
    limits (-90.0 90.0)
           (-45.0 45.0)
  end
  begin
     id 29
     name rfingers
     direction -1 -4.49018e-011 1.95576e-027   
     length 0.565663   
     axis -1.24794e-015 -90 -90   XYZ
    dof rx
    limits (0.0 90.0)
  end
  begin
     id 30
     name rthumb
     direction -0.707107 -6.34881e-011 0.707107   
     length 0.812183   
     axis -90 -45 -2.85299e-015   XYZ
    dof rx rz
    limits (-45.0 45.0)
           (-45.0 45.0)
  end
:hierarchy
  begin
    root lhipjoint rhipjoint lowerback
    lhipjoint lfemur
    lfemur ltibia
    ltibia lfoot
    lfoot ltoes
    rhipjoint rfemur
    rfemur rtibia
    rtibia rfoot
    rfoot rtoes
    lowerback upperback
    upperback thorax
    thorax lowerneck lclavicle rclavicle
    lowerneck upperneck
    upperneck head
    lclavicle lhumerus
    lhumerus lradius
    lradius lwrist
    lwrist lhand lthumb
    lhand lfingers
    rclavicle rhumerus
    rhumerus rradius
    rradius rwrist
    rwrist rhand rthumb
    rhand rfingers
  end

#!OML:ASF F:\VICON\USERDATA\INSTALL\rory3\rory3.ASF
:FULLY-SPECIFIED
:DEGREES
177
root -1.39809 15.7555 2.03907 -175.195 58.1674 -173.901
lowerback 6.52561 2.36799 2.23743
upperback -1.75771 3.36273 0.113074
thorax -5.36491 1.59137 -1.5051
lowerneck -11.4781 -8.46722 -12.4648
upperneck 17.2295 -11.2267 11.1763
head 8.61145 -5.0515 4.51386
rclavicle -1.73937e-014 0
rhumerus -32.7032 2.47796 -89.4841
rradius 25.532
rwrist 14.3616
rhand -14.8273 14.5499
rfingers 7.12502
rthumb 11.3313 -15.124
lclavicle -1.73937e-014 0
lhumerus -41.5409 23.0863 67.8578
lradius 14.6272
lwrist -20.6082
lhand -11.0332 14.0185
lfingers 7.12502
lthumb 14.9885 43.4561
rfemur 5.91276 -1.47777 25.3597
rtibia 44.4937
rfoot 12.9291 -11.3363
rtoes -11.2009
lfemur -21.2002 -9.55317 -19.7679
ltibia 30.6627
lfoot -8.03065 10.8377
ltoes -4.30414
178
root -1.27918 15.7611 1.94655 -176.39 58.2029 -175.284
lowerback 6.65695 2.35859 1.47866
upperback -1.76977 3.27459 -0.0983623
thorax -5.48455 1.56657 -1.29853
lowerneck -11.7519 -8.4418 -12.276
upperneck 17.3228 -11.1694 10.9763
head 8.66105 -5.02157 4.41424
rclavicle -1.29272e-014 3.97569e-016
rhumerus -33.1141 3.02679 -89.6802
rradius 25.82
rwrist 14.114
rhand -14.7299 14.1315
rfingers 7.12502
rthumb 11.4253 -15.5372
lclavicle -1.29272e-014 3.97569e-016
lhumerus -41.1912 21.7566 68.7278
lradius 15.1403
lwrist -18.7293
lhand -10.91 14.0252
lfingers 7.12502
lthumb 15.1072 43.4538
rfemur 4.28032 -1.37429 24.5554
rtibia 47.2811
rfoot 14.7297 -12.8473
rtoes -7.54967
lfemur -20.3177 -9.33699 -20.811
ltibia 30.2228
lfoot -8.04966 10.6515
ltoes -4.09681
179
root -1.16341 15.7647 1.85488 -177.87 58.1793 -176.974
lowerback 6.83146 2.3288 0.609079
upperback -1.775 3.14359 -0.396332
thorax -5.62261 1.5241 -1.11645
lowerneck -12.1119 -8.33424 -11.8742
upperneck 17.4613 -11.0129 10.6705
head 8.7097 -4.93729 4.25596
rclavicle 3.12403e-014 0
rhumerus -33.3796 3.15776 -89.7964
rradius 25.8659
rwrist 14.2049
rhand -14.6827 13.8418
rfingers 7.12502
rthumb 11.4708 -15.8244
lclavicle 3.12403e-014 0
lhumerus -40.8414 20.3786 69.5512
lradius 15.6343
lwrist -16.8914
lhand -10.9427 14.0932
lfingers 7.12502
lthumb 15.0757 43.5243
rfemur 2.6731 -1.35814 23.5522
rtibia 49.9215
rfoot 16.3592 -14.3721
rtoes -3.82848
lfemur -19.3599 -9.08332 -22.0316
ltibia 29.6504
lfoot -8.00008 10.3951
ltoes -3.83502
180
root -1.05108 15.767 1.76109 -179.561 58.1434 -178.826
lowerback 7.08306 2.30098 -0.333091
upperback -1.75047 3.00603 -0.697463
thorax -5.77543 1.48268 -0.89845
lowerneck -12.2903 -8.2141 -11.565
upperneck 17.4133 -10.8529 10.4889
head 8.6762 -4.85518 4.16021
rclavicle -6.92702e-014 -3.97569e-016
rhumerus -33.4672 2.86339 -89.6816
rradius 25.6324
rwrist 14.7064
rhand -14.7879 13.9385
rfingers 7.12502
rthumb 11.3693 -15.7333
lclavicle -6.92702e-014 -3.97569e-016
lhumerus -40.4877 19.1508 70.2967
lradius 16.0259
lwrist -15.4665
lhand -11.1161 14.2047
lfingers 7.12502
lthumb 14.9086 43.6482
rfemur 1.14551 -1.38325 22.4324
rtibia 52.39
rfoot 17.5441 -15.2285
rtoes -1.81252
lfemur -18.2884 -8.92816 -23.3629
ltibia 29.0345
lfoot -8.12642 10.3106
ltoes -2.97077
181
root -0.940844 15.7654 1.6663 -181.149 58.0733 -180.476
lowerback 7.38161 2.27948 -1.11137
upperback -1.67935 2.88974 -0.965944
thorax -5.89733 1.4483 -0.74068
lowerneck -12.4034 -8.17673 -11.4506
upperneck 17.3103 -10.7998 10.4388
head 8.64559 -4.82711 4.12749
rclavicle -1.95989e-014 -9.93923e-015
rhumerus -33.4613 2.50512 -89.4924
rradius 25.3723
rwrist 15.1315
rhand -14.8367 14.1739
rfingers 7.12502
rthumb 11.3223 -15.5005
lclavicle -1.95989e-014 -9.93923e-015
lhumerus -40.0955 18.1758 70.9169
lradius 16.366
lwrist -14.4951
lhand -11.1614 14.1705
lfingers 7.12502
lthumb 14.865 43.6173
rfemur -0.292452 -1.47378 21.4354
rtibia 54.6968
rfoot 18.0924 -15.2254
rtoes -1.83872
lfemur -17.1429 -8.77316 -24.5894
ltibia 28.4157
lfoot -8.27647 10.193
ltoes -2.27565
182
root -0.831332 15.7615 1.57718 -182.428 57.9773 -181.823
lowerback 7.62401 2.2525 -1.78517
upperback -1.61113 2.7769 -1.17159
thorax -5.98678 1.41397 -0.573335
lowerneck -12.4274 -8.17616 -11.3998
upperneck 17.1553 -10.7918 10.3957
head 8.59103 -4.82773 4.10337
rclavicle -7.2193e-014 -7.95139e-016
rhumerus -33.4373 2.13166 -89.287
rradius 25.0794
rwrist 15.5345
rhand -14.9944 14.2921
rfingers 7.12502
rthumb 11.1701 -15.3906
lclavicle -7.2193e-014 -7.95139e-016
lhumerus -39.6429 17.3629 71.4671
lradius 16.6043
lwrist -13.5969
lhand -11.1953 14.0305
lfingers 7.12502
lthumb 14.8323 43.4796
rfemur -1.74333 -1.59152 20.6448
rtibia 56.8396
rfoot 17.7464 -15.0621
rtoes -1.74668
lfemur -16.1275 -8.53865 -25.5972
ltibia 27.8748
lfoot -8.23734 9.82865
ltoes -3.16362
183
root -0.72262 15.7562 1.49123 -183.738 57.8649 -183.292
lowerback 7.79521 2.18317 -2.58486
upperback -1.56838 2.59505 -1.38103
thorax -6.06584 1.35131 -0.327951
lowerneck -11.6678 -8.26132 -12.072
upperneck 16.3569 -10.9563 11.1944
head 8.29527 -4.91308 4.47973
rclavicle 5.26407e-014 3.18055e-015
rhumerus -33.4487 1.72371 -89.0759
rradius 24.7843
rwrist 16.0367
rhand -15.2577 14.4039
rfingers 7.12502
rthumb 10.9162 -15.2924
lclavicle 5.26407e-014 3.18055e-015
lhumerus -39.1709 16.3673 72.1188
lradius 16.8104
lwrist -12.4583
lhand -11.4669 14.0213
lfingers 7.12502
lthumb 14.5707 43.4896
rfemur -3.2409 -1.62994 19.7987
rtibia 58.8334
rfoot 16.5749 -14.6059
rtoes -2.17035
lfemur -15.2682 -8.40149 -26.6391
ltibia 27.4669
lfoot -8.31222 9.5664
ltoes -3.89235
184
root -0.614653 15.7543 1.40622 -184.737 57.7659 -184.446
lowerback 7.92785 2.09954 -3.16769
upperback -1.52258 2.41509 -1.60285
thorax -6.10631 1.28214 -0.21455
lowerneck -12.5337 -7.98694 -11.2303
upperneck 16.8704 -10.5445 10.4226
head 8.47638 -4.70197 4.11434
rclavicle -3.39829e-014 -1.98785e-015
rhumerus -33.4079 1.07002 -88.8661
rradius 24.5062
rwrist 16.5714
rhand -15.4633 14.6168
rfingers 7.12502
rthumb 10.7179 -15.0898
lclavicle -3.39829e-014 -1.98785e-015
lhumerus -38.6764 15.4424 72.5888
lradius 17.022
lwrist -11.7169
lhand -11.7596 14.0407
lfingers 7.12502
lthumb 14.2887 43.529
rfemur -4.80302 -1.5498 19.1712
rtibia 60.6234
rfoot 15.0547 -13.4444
rtoes -3.77395
lfemur -14.5499 -8.33675 -27.4805
ltibia 27.2358
lfoot -8.58169 9.41589
ltoes -4.39635
185
root -0.511697 15.7534 1.32304 -185.227 57.6149 -185.058
lowerback 8.03234 2.00932 -3.41849
upperback -1.45899 2.26257 -1.75358
thorax -6.09956 1.21469 -0.213852
lowerneck -12.4337 -8.00239 -11.3311
upperneck 16.5632 -10.5874 10.6775
head 8.38146 -4.71416 4.21243
rclavicle -1.1935e-013 2.62396e-014
rhumerus -33.3008 0.252651 -88.5451
rradius 24.2543
rwrist 17.064
rhand -15.5617 14.6761
rfingers 7.12502
rthumb 10.623 -15.0354
lclavicle -1.1935e-013 2.62396e-014
lhumerus -38.0748 14.744 72.9562
lradius 17.1184
lwrist -11.5861
lhand -12.0464 14.01
lfingers 7.12502
lthumb 14.0123 43.5177
rfemur -6.39869 -1.48294 18.8898
rtibia 62.1412
rfoot 13.2705 -12.1162
rtoes -4.43714
lfemur -14.0118 -8.27398 -28.0149
ltibia 27.1957
lfoot -8.89467 9.23423
ltoes -5.33991
186
root -0.412329 15.7448 1.23874 -185.224 57.4444 -185.07
lowerback 8.13654 1.91379 -3.32938
upperback -1.41703 2.13977 -1.76537
thorax -6.10749 1.15063 -0.262007
lowerneck -12.0675 -8.05811 -11.5998
upperneck 16.1325 -10.6671 10.9268
head 8.21207 -4.76621 4.33737
rclavicle -9.6739e-014 -8.34896e-015
rhumerus -33.3014 -0.498902 -88.1046
rradius 24.0678
rwrist 17.456
rhand -15.5862 14.7935
rfingers 7.12502
rthumb 10.5994 -14.9192
lclavicle -9.6739e-014 -8.34896e-015
lhumerus -37.5077 14.5356 73.1624
lradius 17.1154
lwrist -12.0174
lhand -12.2399 13.9058
lfingers 7.12502
lthumb 13.8258 43.4263
rfemur -7.87081 -1.46464 18.986
rtibia 63.3225
rfoot 11.2946 -11.1148
rtoes -6.23906
lfemur -13.5723 -8.11455 -28.225
ltibia 27.3354
lfoot -9.36054 8.9843
ltoes -5.59931
187
root -0.310638 15.7354 1.14957 -184.798 57.3586 -184.545
lowerback 8.18488 1.81389 -2.84821
upperback -1.38519 2.05409 -1.72135
thorax -6.08261 1.09069 -0.473973
lowerneck -11.8161 -8.04895 -11.7403
upperneck 15.8922 -10.6533 11.0201
head 8.09921 -4.77293 4.39943
rclavicle -3.70322e-014 3.18055e-015
rhumerus -33.3734 -1.2163 -87.6955
rradius 23.9134
rwrist 17.8318
rhand -15.9783 14.5084
rfingers 7.12502
rthumb 10.2211 -15.2233
lclavicle -3.70322e-014 3.18055e-015
lhumerus -36.9709 14.3188 73.3501
lradius 17.117
lwrist -12.2852
lhand -12.4095 13.7914
lfingers 7.12502
lthumb 13.6624 43.3229
rfemur -9.24214 -1.30028 19.4194
rtibia 64.1862
rfoot 9.26306 -10.6451
rtoes -9.71241
lfemur -13.1347 -7.97644 -28.1075
ltibia 27.6049
lfoot -9.96753 8.8522
ltoes -5.03313
188
root -0.205924 15.73 1.06659 -184.5 57.3353 -184.284
lowerback 8.14501 1.74369 -2.60877
upperback -1.36891 1.98614 -1.72014
thorax -6.03289 1.04822 -0.595516
lowerneck -11.784 -8.00363 -11.6435
upperneck 15.8328 -10.5939 10.9435
head 8.05631 -4.74826 4.36633
rclavicle -6.39922e-014 7.55382e-015
rhumerus -33.3861 -1.81878 -87.4368
rradius 23.7847
rwrist 17.9343
rhand -16.5277 13.9585
rfingers 7.12502
rthumb 9.69109 -15.7985
lclavicle -6.39922e-014 7.55382e-015
lhumerus -36.3667 13.8844 73.6099
lradius 17.1025
lwrist -12.178
lhand -12.6764 13.7463
lfingers 7.12502
lthumb 13.4051 43.295
rfemur -10.8014 -0.977741 19.7543
rtibia 64.8831
rfoot 7.19929 -10.8201
rtoes -10.2381
lfemur -12.8084 -7.75674 -28.0752
ltibia 27.863
lfoot -10.5418 8.69043
ltoes -5.05394
189
root -0.100505 15.7186 0.99245 -184.568 57.2793 -184.553
lowerback 8.0327 1.70396 -2.80748
upperback -1.33888 1.91835 -1.74818
thorax -5.94257 1.02137 -0.499954
lowerneck -11.8571 -7.98887 -11.6441
upperneck 15.8279 -10.5631 10.9217
head 8.06271 -4.73419 4.36078
rclavicle 9.86469e-015 -5.56597e-015
rhumerus -33.2254 -2.8462 -86.9357
rradius 23.479
rwrist 18.1287
rhand -16.1187 14.3881
rfingers 7.12502
rthumb 10.0856 -15.3502
lclavicle 9.86469e-015 -5.56597e-015
lhumerus -35.6563 13.4363 73.9917
lradius 17.0739
lwrist -12.1773
lhand -13.0233 13.8688
lfingers 7.12502
lthumb 13.0707 43.4392
rfemur -12.4157 -0.714781 19.8325
rtibia 65.4965
rfoot 5.25027 -11.0297
rtoes -9.67841
lfemur -12.5363 -7.58976 -28.3152
ltibia 28.0022
lfoot -11.1021 8.44279
ltoes -4.42081
190
root 0.00390052 15.7076 0.914045 -185.246 57.084 -185.425
lowerback 8.00594 1.63217 -3.31954
upperback -1.27626 1.77374 -1.85062
thorax -5.87292 0.967121 -0.299113
lowerneck -12.0229 -7.96959 -11.5383
upperneck 15.9304 -10.5089 10.7061
head 8.10104 -4.71574 4.27325
rclavicle -6.51765e-014 -2.38542e-014
rhumerus -33.0314 -4.20157 -86.1992
rradius 23.0135
rwrist 18.4674
rhand -15.2782 15.5084
rfingers 7.12502
rthumb 10.8964 -14.1889
lclavicle -6.51765e-014 -2.38542e-014
lhumerus -34.9212 13.0766 74.4079
lradius 17.0371
lwrist -12.3978
lhand -13.2788 14.1558
lfingers 7.12502
lthumb 12.8244 43.7418
rfemur -13.8297 -0.516851 19.4362
rtibia 66.0081
rfoot 3.20141 -10.7312
rtoes -10.1833
lfemur -12.0906 -7.594 -28.9718
ltibia 28.1107
lfoot -11.5673 8.23381
ltoes -3.93145
191
root 0.105799 15.6996 0.831429 -186.094 56.7748 -186.415
lowerback 8.07271 1.5159 -3.83665
upperback -1.21022 1.5651 -1.97737
thorax -5.84856 0.881543 -0.115457
lowerneck -12.1101 -7.91231 -11.4031
upperneck 15.9883 -10.4087 10.4765
head 8.10276 -4.67819 4.18466
rclavicle 8.43717e-014 3.57812e-015
rhumerus -33.0273 -5.11826 -85.6706
rradius 22.8105
rwrist 18.6086
rhand -15.0179 15.9034
rfingers 7.12502
rthumb 11.1475 -13.7805
lclavicle 8.43717e-014 3.57812e-015
lhumerus -34.2176 12.9445 74.7145
lradius 16.9958
lwrist -12.6533
lhand -13.3616 14.2819
lfingers 7.12502
lthumb 12.7446 43.8729
rfemur -15.2237 -0.203078 18.8175
rtibia 66.3312
rfoot 0.726775 -10.5447
rtoes -8.48035
lfemur -11.5693 -7.58336 -29.7414
ltibia 28.2464
lfoot -11.9876 7.97579
ltoes -4.06677
